<svg xmlns="http://www.w3.org/2000/svg" xmlns:xlink="http://www.w3.org/1999/xlink" width="500" zoomAndPan="magnify" viewBox="0 0 375 374.999991" height="500" preserveAspectRatio="xMidYMid meet" version="1.0"><defs><g/><clipPath id="df26acff7f"><path d="M 81.195312 203 L 117 203 L 117 242.832031 L 81.195312 242.832031 Z M 81.195312 203 " clip-rule="nonzero"/></clipPath><clipPath id="b247025121"><path d="M 81.195312 136.332031 L 121 136.332031 L 121 176 L 81.195312 176 Z M 81.195312 136.332031 " clip-rule="nonzero"/></clipPath><clipPath id="2deb765ef0"><path d="M 258 136.648438 L 293.796875 136.648438 L 293.796875 176 L 258 176 Z M 258 136.648438 " clip-rule="nonzero"/></clipPath><clipPath id="89954becbb"><path d="M 254 204 L 293.796875 204 L 293.796875 243.148438 L 254 243.148438 Z M 254 204 " clip-rule="nonzero"/></clipPath></defs><rect x="-37.5" width="450" fill="#ffffff" y="-37.499999" height="449.999989" fill-opacity="1"/><rect x="-37.5" width="450" fill="#ffffff" y="-37.499999" height="449.999989" fill-opacity="1"/><rect x="-37.5" width="450" fill="#c4391d" y="-37.499999" height="449.999989" fill-opacity="1"/><g clip-path="url(#df26acff7f)"><path fill="#ffffff" d="M 84.742188 242.832031 L 112.921875 242.832031 C 114.882812 242.832031 116.472656 241.242188 116.472656 239.28125 C 116.472656 237.320312 114.882812 235.730469 112.921875 235.730469 L 88.292969 235.730469 L 88.292969 207.332031 C 88.292969 205.367188 86.703125 203.78125 84.742188 203.78125 C 82.78125 203.78125 81.195312 205.367188 81.195312 207.332031 L 81.195312 239.28125 C 81.195312 241.242188 82.78125 242.832031 84.742188 242.832031 Z M 84.742188 242.832031 " fill-opacity="1" fill-rule="nonzero"/></g><g clip-path="url(#b247025121)"><path fill="#ffffff" d="M 84.742188 175.382812 C 86.703125 175.382812 88.292969 173.792969 88.292969 171.832031 L 88.292969 143.429688 L 116.695312 143.429688 C 118.652344 143.429688 120.242188 141.84375 120.242188 139.882812 C 120.242188 137.917969 118.652344 136.332031 116.695312 136.332031 L 84.742188 136.332031 C 82.78125 136.332031 81.195312 137.917969 81.195312 139.882812 L 81.195312 171.832031 C 81.195312 173.792969 82.78125 175.382812 84.742188 175.382812 Z M 84.742188 175.382812 " fill-opacity="1" fill-rule="nonzero"/></g><g fill="#ffffff" fill-opacity="1"><g transform="translate(96.85765, 224.678591)"><g><path d="M 6.9375 -69.4375 L 28.765625 -69.4375 L 45.140625 -21.328125 L 45.640625 -21.328125 L 62 -69.4375 L 83.828125 -69.4375 L 83.828125 0 L 68.953125 0 L 68.953125 -49.109375 L 68.453125 -49.109375 L 51.578125 0 L 39.1875 0 L 22.328125 -49.109375 L 21.828125 -49.109375 L 21.828125 0 L 6.9375 0 Z M 6.9375 -69.4375 "/></g></g></g><g fill="#ffffff" fill-opacity="1"><g transform="translate(170.716839, 224.678591)"><g><path d="M 22.328125 -56.046875 L 1.484375 -56.046875 L 1.484375 -69.4375 L 58.03125 -69.4375 L 58.03125 -56.046875 L 37.203125 -56.046875 L 37.203125 0 L 22.328125 0 Z M 22.328125 -56.046875 "/></g></g></g><g fill="#ffffff" fill-opacity="1"><g transform="translate(209.219098, 224.678591)"><g><path d="M 30.75 0.984375 C 26.914062 0.984375 23.34375 0.523438 20.03125 -0.390625 C 16.726562 -1.316406 13.835938 -2.6875 11.359375 -4.5 C 8.878906 -6.320312 6.878906 -8.601562 5.359375 -11.34375 C 3.835938 -14.09375 2.878906 -17.253906 2.484375 -20.828125 L 17.359375 -20.828125 C 17.890625 -18.054688 19.3125 -15.875 21.625 -14.28125 C 23.9375 -12.695312 26.976562 -11.90625 30.75 -11.90625 C 35.445312 -11.90625 38.769531 -12.679688 40.71875 -14.234375 C 42.675781 -15.785156 43.65625 -17.820312 43.65625 -20.34375 C 43.65625 -22.0625 43.09375 -23.429688 41.96875 -24.453125 C 40.84375 -25.472656 39.382812 -26.296875 37.59375 -26.921875 C 35.8125 -27.554688 33.757812 -28.085938 31.4375 -28.515625 C 29.125 -28.953125 26.742188 -29.453125 24.296875 -30.015625 C 21.859375 -30.578125 19.476562 -31.285156 17.15625 -32.140625 C 14.84375 -33.003906 12.789062 -34.175781 11 -35.65625 C 9.21875 -37.144531 7.765625 -39.046875 6.640625 -41.359375 C 5.515625 -43.679688 4.953125 -46.59375 4.953125 -50.09375 C 4.953125 -53.46875 5.613281 -56.410156 6.9375 -58.921875 C 8.257812 -61.441406 10.09375 -63.5625 12.4375 -65.28125 C 14.789062 -67 17.535156 -68.285156 20.671875 -69.140625 C 23.816406 -70.003906 27.175781 -70.4375 30.75 -70.4375 C 34.988281 -70.4375 38.691406 -69.921875 41.859375 -68.890625 C 45.035156 -67.867188 47.710938 -66.429688 49.890625 -64.578125 C 52.078125 -62.722656 53.796875 -60.554688 55.046875 -58.078125 C 56.304688 -55.597656 57.132812 -52.9375 57.53125 -50.09375 L 42.65625 -50.09375 C 42.125 -52.34375 40.898438 -54.144531 38.984375 -55.5 C 37.066406 -56.851562 34.488281 -57.53125 31.25 -57.53125 C 27.476562 -57.53125 24.71875 -56.785156 22.96875 -55.296875 C 21.21875 -53.816406 20.34375 -52.082031 20.34375 -50.09375 C 20.34375 -48.3125 20.898438 -46.875 22.015625 -45.78125 C 23.140625 -44.6875 24.59375 -43.789062 26.375 -43.09375 C 28.164062 -42.40625 30.21875 -41.8125 32.53125 -41.3125 C 34.851562 -40.820312 37.238281 -40.273438 39.6875 -39.671875 C 42.132812 -39.078125 44.515625 -38.347656 46.828125 -37.484375 C 49.140625 -36.628906 51.1875 -35.472656 52.96875 -34.015625 C 54.757812 -32.566406 56.21875 -30.75 57.34375 -28.5625 C 58.46875 -26.382812 59.03125 -23.644531 59.03125 -20.34375 C 59.03125 -17.363281 58.414062 -14.582031 57.1875 -12 C 55.96875 -9.425781 54.164062 -7.160156 51.78125 -5.203125 C 49.40625 -3.253906 46.445312 -1.734375 42.90625 -0.640625 C 39.363281 0.441406 35.3125 0.984375 30.75 0.984375 Z M 30.75 0.984375 "/></g></g></g><g clip-path="url(#2deb765ef0)"><path fill="#ffffff" d="M 290.246094 136.648438 L 262.066406 136.648438 C 260.105469 136.648438 258.515625 138.234375 258.515625 140.199219 C 258.515625 142.160156 260.105469 143.746094 262.066406 143.746094 L 286.695312 143.746094 L 286.695312 172.148438 C 286.695312 174.109375 288.285156 175.699219 290.246094 175.699219 C 292.207031 175.699219 293.796875 174.109375 293.796875 172.148438 L 293.796875 140.199219 C 293.796875 138.234375 292.207031 136.648438 290.246094 136.648438 Z M 290.246094 136.648438 " fill-opacity="1" fill-rule="nonzero"/></g><g clip-path="url(#89954becbb)"><path fill="#ffffff" d="M 290.246094 204.097656 C 288.285156 204.097656 286.695312 205.683594 286.695312 207.648438 L 286.695312 236.046875 L 258.296875 236.046875 C 256.335938 236.046875 254.746094 237.636719 254.746094 239.597656 C 254.746094 241.558594 256.335938 243.148438 258.296875 243.148438 L 290.246094 243.148438 C 292.207031 243.148438 293.796875 241.558594 293.796875 239.597656 L 293.796875 207.648438 C 293.796875 205.683594 292.207031 204.097656 290.246094 204.097656 Z M 290.246094 204.097656 " fill-opacity="1" fill-rule="nonzero"/></g></svg>